<svg width="1353" height="257" viewBox="0 0 1353 257" fill="none" xmlns="http://www.w3.org/2000/svg">
<path d="M310.029 256.395H113.279L0 0H196.747L310.029 256.395Z" fill="url(#paint0_linear_106_36)"/>
<path d="M488.82 217.054L506.207 256.355H310.063L408.118 34.3604L488.82 217.054Z" fill="url(#paint1_linear_106_36)"/>
<path d="M732.978 256.36H536.228L521.537 223.095L518.841 217.059L423.126 0.390524L423.306 0H619.699L619.91 0.390524L732.978 256.36Z" fill="url(#paint2_linear_106_36)"/>
<path d="M1042.97 0H1239.72L1257.07 39.3007L1353 256.395H1156.25L1042.97 0Z" fill="url(#paint3_linear_106_36)"/>
<path d="M732.982 256.395L831.248 33.8689L846.226 0H1042.97L929.728 256.395H732.982Z" fill="url(#paint4_linear_106_36)"/>
<defs>
<linearGradient id="paint0_linear_106_36" x1="142.641" y1="1.99999" x2="142.641" y2="256.5" gradientUnits="userSpaceOnUse">
<stop stop-color="#353535"/>
<stop offset="1" stop-color="#030403"/>
</linearGradient>
<linearGradient id="paint1_linear_106_36" x1="400.307" y1="36.092" x2="400.307" y2="256.445" gradientUnits="userSpaceOnUse">
<stop stop-color="#353535"/>
<stop offset="1" stop-color="#030403"/>
</linearGradient>
<linearGradient id="paint2_linear_106_36" x1="565.685" y1="1.99971" x2="565.685" y2="256.465" gradientUnits="userSpaceOnUse">
<stop stop-color="#353535"/>
<stop offset="1" stop-color="#030403"/>
</linearGradient>
<linearGradient id="paint3_linear_106_36" x1="1185.61" y1="1.99999" x2="1185.61" y2="256.5" gradientUnits="userSpaceOnUse">
<stop stop-color="#353535"/>
<stop offset="1" stop-color="#030403"/>
</linearGradient>
<linearGradient id="paint4_linear_106_36" x1="875.605" y1="1.99999" x2="875.605" y2="256.5" gradientUnits="userSpaceOnUse">
<stop stop-color="#353535"/>
<stop offset="1" stop-color="#030403"/>
</linearGradient>
</defs>
</svg>
